<svg xmlns="http://www.w3.org/2000/svg" xmlns:xlink="http://www.w3.org/1999/xlink" width="98.03030395507812" height="32" version="1.1"><rect id="backgroundrect" width="100%" height="100%" x="0" y="0" fill="none" stroke="none"/>
    <!-- Generator: Sketch 56 (81588) - https://sketch.com -->
    <title>tinder-1</title>
    <desc>Created with Sketch.</desc>
    
<g class="currentLayer" style=""><title>Layer 1</title><g id="Web" stroke="none" stroke-width="1" fill="#f25c5c" fill-rule="evenodd" class="selected" fill-opacity="1">
        <g id="Login" fill="#f25c5c" fill-rule="nonzero" stroke="none" stroke-width="0.5" fill-opacity="1" stroke-opacity="1">
            <g id="Group-3" fill="#f25c5c" fill-opacity="1" stroke="none" stroke-opacity="1">
                <g id="tinder-1" fill="#f25c5c" fill-opacity="1" stroke="none" stroke-opacity="1">
                    <path d="M12.91807052598881,-2.840704382833792e-8 C13.129524225988803,0.09867838589292433 13.263444925988779,0.3030836718929213 13.432607925988805,0.4651982098929466 C13.707497825988753,0.7048457868929177 13.911973525988742,1.022026400892969 14.179815025988773,1.2687224408929296 C14.511092525988715,1.5859030508929663 14.722546225988822,1.9876651708929671 14.99743612598877,2.3471365308929535 C15.476731325988794,3.0731277208929555 15.89963872598878,3.8484581208929285 16.11814092598877,4.694273100892929 C16.343691625988754,5.272246670892969 16.378933925988804,5.899559440892972 16.364837025988777,6.519823760892962 C16.378933925988804,7.083700410892959 16.223867825988805,7.640528610892943 15.970052825988773,8.148017590892948 C15.533118925988788,8.916299530892957 14.743691625988731,9.430836980892934 13.918951525988746,9.705726840892964 C12.88987662598879,9.952422880892925 11.755074925988765,9.994713580892949 10.761242325988746,9.557709220892946 C10.401700425988793,9.360352390892956 9.992960325988747,9.226431690892923 9.703973575988812,8.916299530892957 C9.034370045988794,8.366519790892937 8.64670484598878,7.471365610892917 8.773577095988799,6.604405260892918 C8.970933925988788,5.060792920892936 9.894281945988723,3.7356827908929517 10.88106612598881,2.593832570892971 C10.97269602598874,2.76299557089294 10.89509252598873,2.960352390892922 10.958599125988712,3.136563850892969 C11.043180625988725,3.5101321308929414 11.177101325988815,3.904845790892921 11.459039625988794,4.172687200892938 C11.804414125988728,3.85550658089295 12.171004425988713,3.538325960892962 12.467039625988718,3.1718061408929543 C12.734881025988784,2.777092480892918 12.953312825988746,2.34008808089294 13.04494272598879,1.874889840892933 C13.066158625988805,1.2828193508929644 13.122546225988799,0.6625550378929574 12.896925125988787,0.09867838589292433 L12.91807052598881,-2.840704382833792e-8 L12.91807052598881,-2.840704382833792e-8 zM0.005295158588751292,7.041409660892953 C1.654634365988727,7.0555065808929385 3.311022025988791,7.027312750892918 4.960431725988769,7.0555065808929385 C4.960431725988769,8.697797330892968 4.974458155988714,10.34008808089294 4.95331277598882,11.98237878089293 C6.123427315988806,12.003524180892953 7.293400885988717,11.989427280892926 8.470493395988797,11.989427280892926 C8.484590315988726,12.116299580892928 8.491638765988796,12.243171780892965 8.491638765988796,12.370043980892945 C8.477541855988761,13.723347980892925 8.49868722598876,15.069603480892965 8.477541855988761,16.422907480892945 C7.300449345988795,16.437004380892972 6.130405285988786,16.422907480892945 4.95331277598882,16.42995588089292 C4.974458155988714,18.86167398089293 4.94626432598875,21.286343580892947 4.967409695988749,23.71806168089296 C5.009700445988756,23.92951538089295 5.0378942759887195,24.140969180892967 5.030845815988755,24.359471380892955 C5.009629955988771,24.55689868089297 5.129453745988712,24.719013180892944 5.171814985988817,24.902202580892947 C5.263444935988787,25.325110080892955 5.496044055988818,25.70572688089294 5.763814985988802,26.03707488089293 C6.158599125988758,26.43178848089292 6.666017625988729,26.706678380892924 7.2087489059887275,26.826431680892938 C7.702140975988755,26.904035180892947 8.195533045988782,26.946255480892944 8.69604405598875,26.91101318089295 C8.724167405988737,26.995594680892964 8.738334805988757,27.08017618089292 8.738334805988757,27.17180618089293 C8.731286345988792,28.44052858089293 8.731286345988792,29.709251080892955 8.738334805988757,30.970925080892926 C8.738334805988757,31.147136580892948 8.703092515988715,31.323347980892947 8.674898685988751,31.492440480892924 C7.963004405988727,31.492440480892924 7.251180625988809,31.541779680892944 6.539215865988808,31.492440480892924 C6.116308375988751,31.400810580892937 5.665277535988821,31.44310128089296 5.256396475988822,31.259841380892965 C4.121594715988749,30.991999980892956 3.036132165988761,30.42812328089292 2.2255594759888027,29.57525988089293 C1.0343700459887941,28.42643168089296 0.39296035698873766,26.805286280892915 0.13216740498876334,25.19823788089292 C0.06168282378871481,25.022026380892953 0.1039735729888207,24.817621080892934 0.0757092554887322,24.627312780892964 C-0.02289867401123047,24.23964758089295 0.019321590288768675,23.83076648089292 0.005224673988777795,23.436123280892957 C-0.0017532996112095134,17.973568280892948 -0.0017532996112095134,12.50396468089292 0.005295158588751292,7.041409660892953 zM24.082828225988806,11.608810580892964 C24.37879292598882,11.531277480892925 24.695973525988734,11.587665180892941 24.99200882598882,11.524229080892951 C25.612273125988736,11.446695980892969 26.225489025988736,11.545374380892952 26.83870482598877,11.566519780892918 C27.268660825988718,11.559471380892944 27.684519825988787,11.686343580892924 28.107427325988738,11.770925080892937 C29.67923352598882,12.151541780892956 31.16645812598881,12.990308380892941 32.24487222598873,14.216740080892919 C32.43518062598878,14.533920680892948 32.72416742598875,14.766519780892963 32.90735682598881,15.090748880892932 C33.365506625988814,15.816740080892941 33.66866082598881,16.627312780892964 33.92938322598877,17.44493388089296 C34.09156832598876,18.044052880892934 34.17607932598878,18.664317180892965 34.25368282598879,19.277532980892943 C34.28892512598873,20.63788548089292 34.26777972598882,22.00528628089296 34.27482822598881,23.365638780892937 C34.26777972598882,26.079295080892962 34.28187662598873,28.792951480892953 34.26777972598882,31.506607880892943 C32.61844052598872,31.48546248089292 30.976149825988728,31.49955948089297 29.333859025988772,31.492510980892916 C29.319762125988746,31.48546248089292 29.28451982598881,31.457268680892923 29.270422925988782,31.443171780892953 C29.263374425988786,27.644123280892927 29.270422925988782,23.84493388089294 29.270422925988782,20.052863380892973 C29.277471325988813,19.58766518089294 29.1928898259888,19.136563880892936 29.09421142598876,18.692510980892962 C28.918000025988817,18.241409680892957 28.69244932598872,17.811453680892953 28.3823172259888,17.44493388089296 C28.198986825988754,17.226431680892915 27.94531282598882,17.085462480892943 27.740837025988753,16.895154180892973 C27.423656425988725,16.683700380892958 27.050088125988736,16.58502198089292 26.690687225988768,16.486343580892935 C26.50037882598872,16.472246680892965 26.31007052598875,16.486343580892935 26.133859025988727,16.422907480892945 C25.37967402598872,16.373568280892925 24.61139202598872,16.437004380892972 23.90654622598879,16.725991180892947 C23.391938325988804,16.972687180892933 22.912643225988745,17.311013180892928 22.57438762598872,17.783259880892956 C22.017559425988793,18.44581498089292 21.83429952598874,19.34801758089293 21.848396525988733,20.193832580892945 C21.848396525988733,23.957709180892948 21.855444925988763,27.72863438089297 21.848396525988733,31.492510980892916 C20.184889825988762,31.506607880892943 18.521524225988742,31.48546248089292 16.85808812598873,31.506607880892943 C16.82989432598879,27.876651980892916 16.85808812598873,24.23964758089295 16.843991225988816,20.609691580892957 C16.851039625988733,20.144422880892932 16.83694272598882,19.679295080892928 16.872185025988756,19.21402638089296 C16.963815025988765,18.981427280892945 16.900308325988817,18.727753280892955 16.970792925988803,18.50213208089292 C17.09766522598875,17.642220280892957 17.421894325988774,16.824599080892938 17.78136562598877,16.042220280892934 C18.133788525988734,15.358519780892948 18.5566960259888,14.703013180892924 19.10647572598873,14.160281880892967 C19.536502225988784,13.723277480892932 19.980484625988765,13.265127680892931 20.523286325988806,12.962043980892929 C21.573577125988777,12.229074880892938 22.814105725988725,11.785021980892964 24.082828225988806,11.608810580892964 zM10.091638725988787,11.98237878089293 C11.755074925988765,12.010572680892949 13.418511025988778,11.975330380892956 15.08194712598879,11.996475780892922 C15.08194712598879,18.44581498089292 15.07489872598876,24.888035180892928 15.08194712598879,31.330396480892944 C15.08194712598879,31.393832580892933 15.08194712598879,31.52070478089297 14.98326872598875,31.49955948089297 L10.105806125988806,31.49955948089297 C10.063444925988733,30.435242280892965 10.098687225988783,29.363876580892963 10.084590325988756,28.299559480892924 C10.091638725988787,22.865198180892946 10.084590325988756,17.423788480892938 10.091638725988787,11.98237878089293 L10.091638725988787,11.98237878089293 zM62.28547132598874,25.064317180892942 C62.7083788259888,24.902202580892947 63.11718942598873,24.690748880892954 63.547074925988795,24.542801780892944 C64.16733922598883,24.303154180892932 64.77350662598883,24.014167380892957 65.39377092598875,23.774519780892945 C66.67659032598874,23.18251978089296 68.00170042598882,22.689127680892966 69.29861672598872,22.132229080892955 C69.60867842598873,21.96306608089293 69.9611013259888,21.885532980892947 70.26418502598881,21.70227308089295 C70.60955942598878,21.568352380892918 70.95500442598882,21.44845808089292 71.29333042598876,21.293392080892943 C71.58936562598876,21.11718058089292 71.92769162598881,21.046695980892935 72.23077532598882,20.891700380892928 C72.63253742598874,20.729515380892963 73.02020262598876,20.54632598089296 73.4290132259888,20.398308380892956 C73.84487222598875,20.165638780892948 74.31007052598875,20.052933880892965 74.72592952598882,19.827312780892953 C74.83870482598877,19.74977968089297 75.0218943259888,19.770925080892937 75.09237882598882,19.63700438089296 C74.97262552598875,19.467911880892927 75.03599122598871,19.25645808089297 74.97262552598875,19.073127680892924 C74.88092512598882,18.741920680892918 74.78929512598882,18.417621080892957 74.71183262598879,18.093462480892924 C74.39465202598876,17.113726880892955 73.93650222598876,16.17628188089293 73.31623792598873,15.358660780892933 C72.56205282598876,14.266149780892931 71.52592952598877,13.385092480892922 70.37703082598875,12.736634380892951 C69.62284582598875,12.27848458089295 68.77703082598873,12.017691580892915 67.93121582598883,11.792140980892952 C67.40962992598872,11.72870478089294 66.90918942598876,11.545444880892944 66.38055502598877,11.55249338089294 C65.90125992598882,11.48905728089295 65.40786782598877,11.460863380892931 64.93562112598875,11.545444880892944 C64.09685462598873,11.559541780892971 63.293330425988756,11.763947080892933 62.49685462598882,11.996546180892949 C61.10830832598879,12.48288988089297 59.79024672598882,13.22297798089295 58.72592952598882,14.245004380892965 C58.40874892598879,14.54103958089297 58.147955925988754,14.886414080892962 57.84487222598875,15.189497780892964 C57.372625525988724,15.795665180892968 56.94259912598875,16.437074880892965 56.61844052598872,17.127823780892925 C56.160290725988716,18.163947080892967 55.72328632598874,19.24940968089294 55.673947125988775,20.398308380892956 C55.51895152598877,20.948088080892944 55.56822022598874,21.52606168089295 55.56117182598882,22.089938280892966 C55.547074925988795,22.449409680892927 55.60346252598879,22.80183258089295 55.673947125988775,23.147206980892975 C55.65280172598875,23.51365638089294 55.793770925988724,23.852052880892927 55.8431101259888,24.20447578089295 C55.96293392598875,24.95161228089296 56.294211425988806,25.642290680892927 56.59729512598881,26.333039580892944 C57.4290132259888,28.038766480892946 58.73995592598874,29.518942680892962 60.3823172259888,30.484581480892928 C61.46073132598872,31.147136580892948 62.65896912598873,31.61938328089292 63.91359472598879,31.79559468089292 C64.93562112598875,31.95777968089294 65.98584142598872,31.985903080892967 67.01491632598879,31.852052880892927 C67.36733922598876,31.88017618089293 67.70566522598881,31.725110080892932 68.05808812598877,31.703964680892966 C69.55940972598876,31.351541780892944 71.03253742598872,30.717180580892943 72.16733922598883,29.65286338089294 C72.50573572598876,29.38502198089293 72.82291632598879,29.067841380892958 73.09075772598874,28.72944488089297 C73.54178852598875,28.27129508089297 73.86608812598877,27.71453738089292 74.19031722598879,27.164757680892933 C74.50044932598871,26.57966518089296 74.75419382598875,25.95940088089293 74.9375242259888,25.318061680892924 C74.83884582598876,25.275700380892946 74.7260705259888,25.289867780892962 74.6273920259888,25.289867780892962 C72.97805282598881,25.29698678089295 71.33576212598882,25.28281938089293 69.68642292598872,25.289867780892962 C69.53135682598872,25.289867780892962 69.53135682598872,25.50132158089292 69.4326079259888,25.585903080892933 C69.15066962598871,25.99471358089295 68.79119822598875,26.34008808089294 68.41058152598873,26.664317180892965 C67.86080172598872,27.059101280892946 67.21234362598875,27.27055508089296 66.57093392598881,27.46079288089294 C66.40177092598879,27.482008780892954 66.23965642598876,27.47488988089293 66.08459032598876,27.53839648089297 C65.68987662598875,27.566519780892918 65.28811452598882,27.55249338089294 64.88635242598878,27.545444880892944 C64.4422995259888,27.46086338089293 63.99824672598879,27.36218498089295 63.56829072598873,27.22121578089292 C62.90580612598876,26.882889880892947 62.2572775259888,26.49522468089293 61.75690752598882,25.94537438089293 C61.62996472598877,25.790378780892922 61.4256299259888,25.67055508089294 61.38326872598873,25.466079280892927 C61.49611452598879,25.416740080892964 61.60184142598882,25.339206980892925 61.728643225988776,25.318061680892924 C61.93304842598877,25.28281938089293 62.08804402598878,25.120704780892936 62.28547132598874,25.064317180892942 zM60.25544492598874,21.49779728089294 C60.15683702598881,21.251101280892954 60.24839652598871,20.96211448089292 60.23429952598872,20.701321580892966 C60.34714542598874,20.341779680892955 60.38238762598871,19.96123348089293 60.516237925988776,19.60169158089292 C60.854563925988714,18.805215780892922 61.27042292598878,18.022907480892968 61.876590325988786,17.39552418089295 C62.158528625988765,17.162925080892933 62.39817622598878,16.880986780892954 62.7224053259888,16.70477528089293 C62.962052825988735,16.577903080892952 63.19465202598872,16.436933880892923 63.44134802598876,16.32415858089297 C63.89949782598876,16.19030838089293 64.34355062598877,15.978854580892971 64.82291632598879,15.978854580892971 C65.25985022598877,15.873127680892935 65.71102202598877,15.929515380892951 66.15500442598875,15.936493380892955 C67.3180000259888,16.09867838089292 68.48811452598875,16.599048380892953 69.24222912598873,17.52239648089295 C69.31983262598874,17.70572688089294 69.05896912598882,17.719823780892966 68.95324232598875,17.790308380892952 C68.49509252598875,18.044052880892934 67.98055502598879,18.17085458089292 67.52240532598876,18.43171808089295 C67.3180000259888,18.46696028089292 67.14178852598877,18.593832580892922 66.9444317259888,18.65726868089297 C65.48540092598876,19.29162988089297 63.9981762259888,19.848387680892927 62.553242325988776,20.511013180892974 C61.77798242598874,20.81409688089292 61.00970042598874,21.138325980892944 60.25544492598874,21.49779728089294 zM55.00434362598878,3.369162970892944 C53.460801725988745,3.355066050892958 51.9171189259888,3.369162970892944 50.37357712598873,3.3621145108929227 C50.260731325988786,3.3762114208929574 50.12688102598872,3.3268722208929375 50.0351806259888,3.4114537208929505 C50.04927752598883,6.724229050892973 50.0351806259888,10.044052880892934 50.04229952598871,13.356828180892933 C50.0351806259888,13.476651980892939 50.06344492598873,13.596475780892945 50.01410572598877,13.709251080892955 C49.8731365259888,13.688105680892932 49.80265202598878,13.554184980892956 49.69692512598874,13.476651980892939 C48.985030825988815,12.863436080892939 48.188625525988755,12.341850180892948 47.30044932598878,12.038766480892946 C46.70133042598877,11.80616738089293 46.07408812598874,11.686343580892924 45.43972692598879,11.573568280892971 C44.72078412598876,11.559471380892944 43.994792925988804,11.538325980892921 43.26873132598871,11.580616680892945 C43.19119822598873,11.601762080892968 43.12071362598874,11.622907480892934 43.04325112598872,11.629955880892965 C41.42915422598878,11.85550658089295 39.92071362598881,12.609691580892957 38.68025552598874,13.645814980892965 C37.989506625988724,14.294273080892935 37.29875772598882,14.970925080892926 36.81241412598877,15.788546180892922 C36.24148902598881,16.599118880892945 35.87496912598874,17.529515380892917 35.522546225988776,18.44581498089292 C35.36043172598875,19.02378848089296 35.198246725988724,19.59471358089297 35.12776212598874,20.18678408089295 C34.99384142598876,21.096035180892954 35.05022912598872,22.026431680892927 35.06432602598875,22.94273128089293 C35.0995683259888,23.18237878089292 35.177101325988815,23.40792948089296 35.18414982598881,23.647577080892916 C35.31102202598879,24.422907480892945 35.536572725988776,25.18414098089295 35.846634325988816,25.910132080892936 C36.10742732598874,26.60792948089295 36.5303348259888,27.24229068089295 36.91800002598882,27.876651980892916 C37.1928898259888,28.229074880892938 37.46073132598872,28.59559468089293 37.79200882598877,28.905726880892928 C38.285400925988824,29.392070480892926 38.77167402598877,29.920704780892947 39.391938325988804,30.259030780892942 C40.12497802598875,30.815858980892926 40.99193832598871,31.147206980892975 41.83775332598873,31.47136558089295 C42.14788542598876,31.527753280892966 42.436872225988736,31.703964680892966 42.754052825988765,31.711013180892962 C43.0218943259888,31.73215858089293 43.268590325988725,31.859030780892965 43.536502225988784,31.844863380892946 C43.67747132598879,31.83076648089292 43.804343625988736,31.92944488089296 43.952290725988746,31.915347980892932 C44.63599122598873,31.936493380892955 45.32674012598875,31.936493380892955 46.01044052598877,31.915347980892932 C46.12321582598872,31.915347980892932 46.235991225988755,31.86600878089297 46.35581502598882,31.858960280892916 C46.82799122598874,31.86600878089297 47.26499562598872,31.682748880892973 47.72314542598872,31.619312780892926 C48.322264325988726,31.400810580892937 48.96374452598877,31.259841380892965 49.52050222598882,30.935682780892932 C50.345171825988814,30.55506608089297 51.092308325988824,30.019383280892953 51.761911925988784,29.413145380892956 C52.6077269259888,28.680176180892943 53.29142732598882,27.76387658089294 53.798916325988785,26.762925080892956 C54.017418525988774,26.318872180892924 54.264114525988816,25.888916280892943 54.40508372598879,25.40962108089292 C54.672995625988726,24.74706608089292 54.7927489259888,24.042220280892934 54.884449325988726,23.34442288089292 C55.03944492598873,22.73120698089292 54.99017622598876,22.089797280892924 55.00434362598878,21.455436080892923 C55.00434362598878,15.429074880892927 55.00434362598878,9.402643140892962 55.00434362598878,3.369162970892944 L55.00434362598878,3.369162970892944 zM49.99296032598875,22.45638768089293 C49.95066962598878,23.203594680892934 49.6687313259888,23.915418480892924 49.33745372598878,24.58502198089292 C48.78062552598874,25.635242280892953 47.84318062598879,26.438766480892923 46.77886342598879,26.946255480892944 C46.616678425988766,27.030836980892957 46.40522462598881,27.023858980892953 46.292519825988734,27.17885458089296 C46.09516302598877,27.17885458089296 45.89780612598872,27.18597358089295 45.70749782598875,27.25645808089297 C45.10125992598876,27.27055508089296 44.47401762598872,27.326942680892955 43.881947125988745,27.15777968089293 C43.62820262598882,27.037955880892923 43.34626432598873,26.988687180892953 43.0925198259888,26.854695980892927 C42.77533922598877,26.678484580892928 42.41586782598881,26.55866078089292 42.15507492598874,26.29081938089297 C41.661682825988805,25.94544488089292 41.28113652598881,25.47319818089295 40.93569162598874,24.986854580892953 C40.66080172598879,24.514607880892925 40.38591192598881,24.028264280892927 40.25903962598875,23.492581480892966 C40.11807052598874,23.21064318089293 40.132096925988776,22.893462480892936 40.054634325988786,22.59742728089293 C40.03348902598873,21.843312780892916 39.991198225988796,21.067982380892943 40.16740972598882,20.334872180892944 C40.245013225988714,20.102273080892928 40.29435242598879,19.855577080892942 40.37886342598881,19.622977980892927 C40.58326872598877,19.249339180892946 40.71014092598875,18.833550680892927 40.977982425988785,18.49522468089293 C41.11895152598879,18.19918938089296 41.3656476259888,17.980616680892922 41.56307492598876,17.726942680892932 C42.09170922598878,17.12077528089293 42.81770042598873,16.73311008089297 43.5506696259888,16.43002638089297 C43.825559425988786,16.36666078089297 44.09340092598882,16.225691580892942 44.38245812598882,16.225691580892942 C44.967480225988766,16.077603480892947 45.57357712598878,16.197497780892945 46.151621125988754,16.303224680892924 C46.91285462598876,16.578114480892964 47.667039625988764,16.95873128089295 48.25911012598874,17.522607880892963 C48.47761232598873,17.727013180892925 48.63965642598873,17.980757680892964 48.85822912598883,18.185162980892926 C49.76036122598873,19.39735678089295 50.17614982598877,20.955066080892948 49.99296032598875,22.45638768089293 zM74.01128102598875,12.815343580892943 L80.25737472598871,12.815343580892943 L84.77788262598881,25.316808480892973 L89.41801932598878,12.815343580892943 L95.44194512598881,12.815343580892943 L87.73442552598874,30.964757680892944 L81.5649919259888,30.964757680892944 L74.01128102598875,12.815343580892943 z" id="Shape" fill="#f25c5c" fill-opacity="1" stroke="none" stroke-opacity="1"/>
                </g>
            </g>
        </g>
    </g></g></svg>